<svg width="30" height="30" viewBox="0 0 30 30" fill="none" xmlns="http://www.w3.org/2000/svg">
<path d="M15 6.25C9.1625 6.25 4.1375 9.7625 2.5 15C4.1375 20.2375 9.1625 23.75 15 23.75C20.8375 23.75 25.8625 20.2375 27.5 15C25.8625 9.7625 20.8375 6.25 15 6.25ZM15 20C12.2375 20 10 17.7625 10 15C10 12.2375 12.2375 10 15 10C17.7625 10 20 12.2375 20 15C20 17.7625 17.7625 20 15 20ZM15 12.5C13.6125 12.5 12.5 13.6125 12.5 15C12.5 16.3875 13.6125 17.5 15 17.5C16.3875 17.5 17.5 16.3875 17.5 15C17.5 13.6125 16.3875 12.5 15 12.5Z" fill="#323232"/>
<path d="M3.75 3.75L26.25 26.25" stroke="#323232" stroke-width="2.5" stroke-linecap="round"/>
</svg>
