<svg width="30" height="30" viewBox="0 0 30 30" fill="none" xmlns="http://www.w3.org/2000/svg">
<path d="M15 2.5C8.1 2.5 2.5 8.1 2.5 15C2.5 21.9 8.1 27.5 15 27.5C21.9 27.5 27.5 21.9 27.5 15C27.5 8.1 21.9 2.5 15 2.5ZM15 25C9.475 25 5 20.525 5 15C5 9.475 9.475 5 15 5C20.525 5 25 9.475 25 15C25 20.525 20.525 25 15 25Z" fill="#323232"/>
<path d="M15 7.5C14.3125 7.5 13.75 8.0625 13.75 8.75V15C13.75 15.6875 14.3125 16.25 15 16.25C15.6875 16.25 16.25 15.6875 16.25 15V8.75C16.25 8.0625 15.6875 7.5 15 7.5Z" fill="#323232"/>
<path d="M18.75 15C18.75 17.0711 17.0711 18.75 15 18.75C12.9289 18.75 11.25 17.0711 11.25 15C11.25 12.9289 12.9289 11.25 15 11.25C17.0711 11.25 18.75 12.9289 18.75 15Z" fill="#323232"/>
</svg>
