<svg width="30" height="30" viewBox="0 0 30 30" fill="none" xmlns="http://www.w3.org/2000/svg">
<path d="M18.75 3.75H16.25V2.5H13.75V3.75H11.25C10.5625 3.75 10 4.3125 10 5V7.5C10 8.1875 10.5625 8.75 11.25 8.75H18.75C19.4375 8.75 20 8.1875 20 7.5V5C20 4.3125 19.4375 3.75 18.75 3.75Z" fill="#323232"/>
<path d="M20 10H10C8.625 10 7.5 11.125 7.5 12.5V25C7.5 26.375 8.625 27.5 10 27.5H20C21.375 27.5 22.5 26.375 22.5 25V12.5C22.5 11.125 21.375 10 20 10ZM17.5 20H12.5V17.5H17.5V20Z" fill="#323232"/>
</svg>
