<svg width="30" height="30" viewBox="0 0 30 30" fill="none" xmlns="http://www.w3.org/2000/svg">
<path d="M15 18.75C17.0625 18.75 18.75 17.0625 18.75 15V7.5C18.75 5.4375 17.0625 3.75 15 3.75C12.9375 3.75 11.25 5.4375 11.25 7.5V15C11.25 17.0625 12.9375 18.75 15 18.75Z" fill="#323232"/>
<path d="M21.25 15C21.25 18.45 18.45 21.25 15 21.25C11.55 21.25 8.75 18.45 8.75 15H6.25C6.25 19.4375 9.4375 23.0625 13.75 23.6875V27.5H16.25V23.6875C20.5625 23.0625 23.75 19.4375 23.75 15H21.25Z" fill="#323232"/>
</svg>
